<?xml version="1.0" encoding="UTF-8" standalone="no"?>
<svg
   version="1.0"
   width="512.000000pt"
   height="512.000000pt"
   viewBox="0 0 512.000000 512.000000"
   preserveAspectRatio="xMidYMid meet"
   id="svg1"
   sodipodi:docname="esconder.svg"
   inkscape:version="1.4 (86a8ad7, 2024-10-11)"
   xmlns:inkscape="http://www.inkscape.org/namespaces/inkscape"
   xmlns:sodipodi="http://sodipodi.sourceforge.net/DTD/sodipodi-0.dtd"
   xmlns="http://www.w3.org/2000/svg"
   xmlns:svg="http://www.w3.org/2000/svg">
  <defs
     id="defs1" />
  <sodipodi:namedview
     id="namedview1"
     pagecolor="#ffffff"
     bordercolor="#000000"
     borderopacity="0.25"
     inkscape:showpageshadow="2"
     inkscape:pageopacity="0.0"
     inkscape:pagecheckerboard="0"
     inkscape:deskcolor="#d1d1d1"
     inkscape:document-units="pt"
     inkscape:zoom="0.67529297"
     inkscape:cx="362.06508"
     inkscape:cy="341.33333"
     inkscape:window-width="1366"
     inkscape:window-height="705"
     inkscape:window-x="-8"
     inkscape:window-y="-8"
     inkscape:window-maximized="1"
     inkscape:current-layer="g1" />
  <g
     transform="translate(0.000000,512.000000) scale(0.100000,-0.100000)"
     fill="#000000"
     stroke="none"
     id="g1"
     style="fill:#330080">
    <path
       d="m 121.72451,3303.6573 c -40.999998,-18 -82.999998,-69 -90.999998,-111 -13,-72 2,-103 93.999998,-199 160,-164 436,-394 630,-525 34,-23 62,-45 62,-49 0,-3 -101,-108 -224,-232 -191,-192 -226,-231 -236,-267 -20,-76 12,-148 80,-183 44,-22 85,-25 127,-10 15,6 143,126 284,266 l 255.99999,256 110,-55 c 212,-107 415,-184 622,-238 125,-32 334,-69 393,-69 h 37 l 3,-348 c 3,-344 3,-347 27,-385 31,-51 91,-81 149,-74 50,5 87,29 120,77 22,33 22,37 22,381 v 349 h 31 c 54,0 239,30 353,57 147,34 334,98 495,168 l 133,58 301,-301 c 325,-323 326,-324 412,-308 46,9 100,62 115,114 26,85 17,98 -273,389 -160,161 -258,266 -252,272 6,4 66,46 135,91 239,158 438,319 637,515 153,151 164,169 148,252 -9,49 -69,109 -118,118 -79,15 -100,3 -251,-143 -709,-688 -1505,-1033 -2217,-962 -609,62 -1259.99999,402 -1828.99999,957 -75,73 -148,137 -164,142 -37,15 -84,13 -121,-3 z"
       id="path1"
       style="fill:#0c3c15;fill-opacity:1" />
    <path
       style="fill:none;stroke:#b81060;stroke-width:19.5213;stroke-linecap:square;stroke-linejoin:round;stroke-opacity:0;paint-order:fill markers stroke"
       d="m 331.40957,571.6637 c -9.40708,-5.73582 -9.77406,-7.76312 -10.51729,-58.10007 l -0.67112,-45.45301 -8.32461,-0.94837 c -17.39526,-1.98178 -52.99274,-9.86177 -71.01871,-15.72097 -19.44355,-6.31997 -44.38846,-16.66064 -64.38806,-26.69145 l -11.57672,-5.80631 -35.42952,34.74669 c -25.19158,24.70608 -36.714775,35.02899 -39.877288,35.72359 -6.363456,1.39765 -13.966,-1.5902 -19.192391,-7.54272 -3.712355,-4.22814 -4.516536,-6.42812 -4.516536,-12.35571 0,-6.9572 0.438781,-7.69994 12.435722,-21.05043 6.839648,-7.61132 20.500385,-21.82488 30.357193,-31.58568 9.85681,-9.76081 17.92147,-18.5564 17.92147,-19.54575 0,-0.98936 -2.16572,-3.37108 -4.81272,-5.2927 C 85.617354,365.77427 67.416342,350.82805 43.849635,328.03073 21.574521,306.48283 18.88583,300.41624 25.84662,287.40989 c 4.036153,-7.54162 17.220704,-11.32869 24.748637,-7.10868 1.764629,0.98921 13.426234,11.24727 25.914678,22.79568 74.088535,68.51169 141.353215,105.20705 221.138655,120.63927 6.9753,1.34918 21.74852,1.98459 45.16558,1.94264 30.4042,-0.0545 36.76366,-0.48495 50.34852,-3.40803 75.15959,-16.17227 144.15743,-54.70466 212.50036,-118.67252 23.22653,-21.73965 27.99061,-25.203 34.65169,-25.19081 8.82248,0.0161 16.64917,6.69166 19.49998,16.63183 2.25924,7.87749 -2.72036,15.35942 -23.53262,35.35815 -23.15815,22.25292 -50.5416,44.32002 -78.2409,63.05083 -18.17886,12.2929 -20.88935,14.627 -19.65785,16.92807 0.78566,1.468 14.92989,16.52085 31.43165,33.45079 34.77615,35.67853 38.06931,39.67276 38.06931,46.17362 0,10.37892 -9.63109,20.88864 -19.14234,20.88864 -7.94592,0 -11.97106,-3.32494 -54.30599,-44.85931 l -37.16776,-36.46492 -17.38772,7.3687 c -40.16693,17.02227 -69.19761,24.96237 -110.70488,30.27861 l -6.95743,0.89111 -0.44676,47.4158 -0.44677,47.41582 -6.23623,5.81512 c -5.25104,4.89648 -7.23952,5.81426 -12.58713,5.8096 -3.68382,-0.003 -8.34182,-1.21947 -11.09173,-2.8962 z"
       id="path2"
       transform="matrix(7.5,0,0,-7.5,0,5120)" />
  </g>
</svg>
